# Blender v2.83.0 OBJ File: ''
# www.blender.org
mtllib untitled.mtl
o Cube_Cube.001
v -1.252061 -0.768540 0.669288
v -0.252061 1.231460 1.631365
v -1.252061 -0.768540 2.593442
v 0.747939 -0.768540 0.669288
v 0.747939 -0.768540 2.593442
vt 0.375000 0.000000
vt 0.375000 0.250000
vt 0.625000 0.250000
vt 0.375000 0.500000
vt 0.625000 0.500000
vt 0.375000 0.750000
vt 0.625000 0.750000
vt 0.375000 1.000000
vt 0.625000 1.000000
vt 0.125000 0.500000
vt 0.125000 0.750000
vn -0.8944 0.4472 0.0000
vn 0.0000 0.4335 0.9012
vn 0.8944 0.4472 0.0000
vn 0.0000 0.4335 -0.9012
vn 0.0000 -1.0000 0.0000
usemtl None
s off
f 1/1/1 3/2/1 2/3/1
f 3/2/2 5/4/2 2/5/2
f 5/4/3 4/6/3 2/7/3
f 4/6/4 1/8/4 2/9/4
f 3/10/5 1/11/5 4/6/5 5/4/5
